<svg width="908" height="777" viewBox="0 0 908 777" fill="none" xmlns="http://www.w3.org/2000/svg">
<path d="M751.1 194.734V13.2785C751.1 6.31919 745.458 0.677521 738.499 0.677521L12.68 0.677521C5.72064 0.677521 0.0789795 6.31919 0.0789795 13.2785V194.734C0.0789795 201.693 5.72064 207.335 12.68 207.335L738.499 207.335C745.458 207.335 751.1 201.693 751.1 194.734Z" fill="#94A3B8"/>
<path d="M751.1 764.3V582.845C751.1 575.886 745.458 570.244 738.499 570.244H12.6801C5.7207 570.244 0.0789795 575.886 0.0789795 582.845V764.3C0.0789795 771.259 5.7207 776.901 12.6801 776.901H738.499C745.458 776.901 751.1 771.259 751.1 764.3Z" fill="#94A3B8"/>
<path d="M557.044 207.335L557.044 570.244L194.135 570.244L194.135 207.335L557.044 207.335Z" fill="#64748B"/>
<path d="M622.569 272.859L622.569 504.718C622.569 511.677 616.927 517.319 609.968 517.319L143.73 517.319C136.771 517.319 131.129 511.677 131.129 504.718L131.129 272.859C131.129 265.9 136.771 260.258 143.73 260.258L609.968 260.258C616.927 260.258 622.569 265.9 622.569 272.859Z" fill="#1A202C"/>
<path d="M869.549 350.986C890.427 350.986 907.352 367.911 907.352 388.789C907.352 409.667 890.427 426.592 869.549 426.592L453.715 426.592C432.837 426.592 415.912 409.667 415.912 388.789C415.912 367.911 432.837 350.986 453.715 350.986L869.549 350.986Z" fill="#1A202C"/>
</svg>
